<?xml version="1.0" encoding="UTF-8" standalone="no"?>
<!-- Created with Inkscape (http://www.inkscape.org/) -->

<svg
   xmlns:dc="http://purl.org/dc/elements/1.1/"
   xmlns:cc="http://creativecommons.org/ns#"
   xmlns:rdf="http://www.w3.org/1999/02/22-rdf-syntax-ns#"
   xmlns:svg="http://www.w3.org/2000/svg"
   xmlns="http://www.w3.org/2000/svg"
   xmlns:sodipodi="http://sodipodi.sourceforge.net/DTD/sodipodi-0.dtd"
   xmlns:inkscape="http://www.inkscape.org/namespaces/inkscape"
   width="5in"
   height="5in"
   viewBox="0 0 450.00001 450.00002"
   id="svg2"
   version="1.1"
   inkscape:version="0.91 r13725"
   sodipodi:docname="ho.svg">
  <defs
     id="defs4" />
  <sodipodi:namedview
     id="base"
     pagecolor="#ffffff"
     bordercolor="#666666"
     borderopacity="1.0"
     inkscape:pageopacity="0.0"
     inkscape:pageshadow="2"
     inkscape:zoom="0.35"
     inkscape:cx="-63.066065"
     inkscape:cy="630.86053"
     inkscape:document-units="px"
     inkscape:current-layer="layer1"
     showgrid="false"
     inkscape:window-width="1313"
     inkscape:window-height="744"
     inkscape:window-x="53"
     inkscape:window-y="24"
     inkscape:window-maximized="1"
     units="in" />
  <metadata
     id="metadata7">
    <rdf:RDF>
      <cc:Work
         rdf:about="">
        <dc:format>image/svg+xml</dc:format>
        <dc:type
           rdf:resource="http://purl.org/dc/dcmitype/StillImage" />
        <dc:title></dc:title>
      </cc:Work>
    </rdf:RDF>
  </metadata>
  <g
     inkscape:label="Layer 1"
     inkscape:groupmode="layer"
     id="layer1"
     transform="translate(0,-602.36215)">
    <path
       style="opacity:1;fill:#dc0000;fill-opacity:1;stroke:none;stroke-width:6.13500023;stroke-miterlimit:4;stroke-dasharray:none;stroke-dashoffset:0;stroke-opacity:1"
       d="m 132.24357,747.24639 a 101.71209,147.87374 0 0 0 50.85512,128.06204 101.71209,147.87374 0 0 0 101.71241,0 101.71209,147.87374 0 0 0 50.8562,-128.06204 l -10.76748,0 a 90.944766,132.21971 0 0 1 -45.47246,114.50587 90.944766,132.21971 0 0 1 -90.94492,0 90.944766,132.21971 0 0 1 -45.47246,-114.50587 l -10.76641,0 z"
       id="path4136"
       inkscape:connector-curvature="0" />
    <g
       id="g4184"
       transform="matrix(0.54768053,0,0,0.54768053,66.52144,411.08484)">
      <path
         id="rect4154"
         d="m 57.142578,526.29102 c -13.94274,0 -56.76629161,74.17523 -49.7949218,86.25 3.0537268,5.28921 21.2037638,8.26055 41.2246098,8.91601 l 0,348.04883 17.142578,0 0,-348.04883 c 20.02009,-0.65558 38.169026,-3.62697 41.222656,-8.91601 6.97137,-12.07477 -35.852182,-86.25 -49.794922,-86.25 z"
         style="opacity:1;fill:#0084c8;fill-opacity:1;stroke:none;stroke-width:6.13500023;stroke-miterlimit:4;stroke-dasharray:none;stroke-dashoffset:0;stroke-opacity:1"
         inkscape:connector-curvature="0" />
      <path
         id="rect4154-6"
         d="m 507.80095,961.79075 c 0,-13.94274 -74.17523,-56.76628 -86.25,-49.79491 -5.28921,3.05372 -8.26055,21.20376 -8.91601,41.2246 l -348.048796,0 0,17.14258 348.048796,0 c 0.65558,20.02009 3.62697,38.16898 8.91601,41.22268 12.07477,6.9713 86.25,-35.85221 86.25,-49.79495 z"
         style="opacity:1;fill:#ff6600;fill-opacity:1;stroke:none;stroke-width:6.13500023;stroke-miterlimit:4;stroke-dasharray:none;stroke-dashoffset:0;stroke-opacity:1"
         inkscape:connector-curvature="0" />
    </g>
    <text
       xml:space="preserve"
       style="font-style:normal;font-weight:normal;font-size:36.70154953px;line-height:125%;font-family:sans-serif;letter-spacing:0px;word-spacing:0px;fill:#005c94;fill-opacity:1;stroke:none;stroke-width:1px;stroke-linecap:butt;stroke-linejoin:miter;stroke-opacity:1"
       x="-909.00659"
       y="66.578293"
       id="text4188"
       sodipodi:linespacing="125%"
       transform="matrix(0,-1,1,0,0,0)"><tspan
         sodipodi:role="line"
         id="tspan4190"
         x="-909.00659"
         y="66.578293">Energy </tspan></text>
    <text
       xml:space="preserve"
       style="font-style:normal;font-weight:normal;font-size:36.70154953px;line-height:125%;font-family:sans-serif;letter-spacing:0px;word-spacing:0px;fill:#ff6600;fill-opacity:1;stroke:none;stroke-width:1px;stroke-linecap:butt;stroke-linejoin:miter;stroke-opacity:1"
       x="95.873901"
       y="1036.1239"
       id="text4188-7"
       sodipodi:linespacing="125%"><tspan
         sodipodi:role="line"
         id="tspan4190-5"
         x="95.873901"
         y="1036.1239">Displacement </tspan></text>
    <rect
       style="opacity:1;fill:#b88100;fill-opacity:1;stroke:none;stroke-width:6.13500023;stroke-miterlimit:4;stroke-dasharray:none;stroke-dashoffset:0;stroke-opacity:1"
       id="rect4210"
       width="9.3888083"
       height="233.15543"
       x="229.26079"
       y="700.92798" />
    <g
       id="g4312"
       transform="matrix(0.54768053,0,0,0.54768053,30.531004,874.26609)">
      <text
         sodipodi:linespacing="125%"
         id="text4188-7-9"
         y="176.56386"
         x="340.57568"
         style="font-style:normal;font-weight:normal;font-size:67.01269531px;line-height:125%;font-family:sans-serif;letter-spacing:0px;word-spacing:0px;fill:#804d00;fill-opacity:1;stroke:none;stroke-width:1px;stroke-linecap:butt;stroke-linejoin:miter;stroke-opacity:1"
         xml:space="preserve"><tspan
           y="176.56386"
           x="340.57568"
           id="tspan4190-5-1"
           sodipodi:role="line">r </tspan></text>
      <text
         sodipodi:linespacing="125%"
         id="text4188-7-9-2"
         y="211.1277"
         x="357.43433"
         style="font-style:normal;font-weight:normal;font-size:67.01269531px;line-height:125%;font-family:sans-serif;letter-spacing:0px;word-spacing:0px;fill:#804d00;fill-opacity:1;stroke:none;stroke-width:1px;stroke-linecap:butt;stroke-linejoin:miter;stroke-opacity:1"
         xml:space="preserve"><tspan
           y="211.1277"
           x="357.43433"
           id="tspan4190-5-1-7"
           sodipodi:role="line">0 </tspan></text>
    </g>
    <rect
       style="opacity:1;fill:#009100;fill-opacity:1;stroke:none;stroke-width:6.13500023;stroke-miterlimit:4;stroke-dasharray:none;stroke-dashoffset:0;stroke-opacity:1"
       id="rect4210-0"
       width="9.3888083"
       height="233.15543"
       x="159.31416"
       y="701.86682" />
    <text
       sodipodi:linespacing="125%"
       id="text4188-7-9-9"
       y="971.58844"
       x="156.5007"
       style="font-style:normal;font-weight:normal;font-size:36.70154953px;line-height:125%;font-family:sans-serif;letter-spacing:0px;word-spacing:0px;fill:#009100;fill-opacity:1;stroke:none;stroke-width:1px;stroke-linecap:butt;stroke-linejoin:miter;stroke-opacity:1"
       xml:space="preserve"><tspan
         y="971.58844"
         x="156.5007"
         id="tspan4190-5-1-3"
         sodipodi:role="line">r </tspan></text>
    <path
       style="opacity:1;fill:#ba00ff;fill-opacity:1;stroke:none;stroke-width:6.13500023;stroke-miterlimit:4;stroke-dasharray:none;stroke-dashoffset:0;stroke-opacity:1"
       d="m 247.43044,687.70684 c 0,-2.45757 -13.07424,-10.00571 -15.20256,-8.77693 -0.93226,0.53823 -1.456,3.7372 -1.57156,7.26597 l -60.68871,0 c -0.11555,-3.52877 -0.63929,-6.72774 -1.57155,-7.26597 -2.12831,-1.22878 -15.20256,6.31936 -15.20256,8.77693 0,2.45757 13.07425,10.00571 15.20256,8.77693 0.93226,-0.53823 1.45599,-3.73719 1.57155,-7.26597 l 60.68871,0 c 0.11556,3.52878 0.6393,6.72773 1.57156,7.26597 2.12832,1.22878 15.20256,-6.31936 15.20256,-8.77693 z"
       id="rect4154-60"
       inkscape:connector-curvature="0" />
    <g
       id="g4403"
       transform="matrix(0.54768053,0,0,0.54768053,640.80362,526.88014)">
      <text
         xml:space="preserve"
         style="font-style:normal;font-weight:normal;font-size:67.01269531px;line-height:125%;font-family:sans-serif;letter-spacing:0px;word-spacing:0px;fill:#ba00ff;fill-opacity:1;stroke:none;stroke-width:1px;stroke-linecap:butt;stroke-linejoin:miter;stroke-opacity:1"
         x="-925.42279"
         y="248.27058"
         id="text4188-7-9-9-2"
         sodipodi:linespacing="125%"><tspan
           sodipodi:role="line"
           id="tspan4190-5-1-3-6"
           x="-925.42279"
           y="248.27058">Δr=r-r</tspan></text>
      <text
         xml:space="preserve"
         style="font-style:normal;font-weight:normal;font-size:67.01269531px;line-height:125%;font-family:sans-serif;letter-spacing:0px;word-spacing:0px;fill:#ba00ff;fill-opacity:1;stroke:none;stroke-width:1px;stroke-linecap:butt;stroke-linejoin:miter;stroke-opacity:1"
         x="-729.25708"
         y="279.61292"
         id="text4188-7-9-2-1"
         sodipodi:linespacing="125%"><tspan
           sodipodi:role="line"
           id="tspan4190-5-1-7-8"
           x="-729.25708"
           y="279.61292">0 </tspan></text>
    </g>
  </g>
</svg>
