<?xml version="1.0" encoding="UTF-8" standalone="no"?>
<!-- Created with Inkscape (http://www.inkscape.org/) -->

<svg
   xmlns:dc="http://purl.org/dc/elements/1.1/"
   xmlns:cc="http://creativecommons.org/ns#"
   xmlns:rdf="http://www.w3.org/1999/02/22-rdf-syntax-ns#"
   xmlns:svg="http://www.w3.org/2000/svg"
   xmlns="http://www.w3.org/2000/svg"
   xmlns:sodipodi="http://sodipodi.sourceforge.net/DTD/sodipodi-0.dtd"
   xmlns:inkscape="http://www.inkscape.org/namespaces/inkscape"
   width="6.062295in"
   height="4.8819256in"
   viewBox="0 0 545.60656 439.37332"
   id="svg2"
   version="1.1"
   inkscape:version="0.91 r13725"
   sodipodi:docname="lj.svg">
  <defs
     id="defs4" />
  <sodipodi:namedview
     id="base"
     pagecolor="#ffffff"
     bordercolor="#666666"
     borderopacity="1.0"
     inkscape:pageopacity="0.0"
     inkscape:pageshadow="2"
     inkscape:zoom="0.7"
     inkscape:cx="274.92422"
     inkscape:cy="148.57655"
     inkscape:document-units="px"
     inkscape:current-layer="layer1"
     showgrid="false"
     inkscape:window-width="1313"
     inkscape:window-height="744"
     inkscape:window-x="53"
     inkscape:window-y="24"
     inkscape:window-maximized="1"
     units="in"
     fit-margin-top="0"
     fit-margin-left="0"
     fit-margin-right="0"
     fit-margin-bottom="0" />
  <metadata
     id="metadata7">
    <rdf:RDF>
      <cc:Work
         rdf:about="">
        <dc:format>image/svg+xml</dc:format>
        <dc:type
           rdf:resource="http://purl.org/dc/dcmitype/StillImage" />
        <dc:title></dc:title>
      </cc:Work>
    </rdf:RDF>
  </metadata>
  <g
     inkscape:label="Layer 1"
     inkscape:groupmode="layer"
     id="layer1"
     transform="translate(-12.67989,-604.38479)">
    <rect
       style="opacity:1;fill:#9eabb0;fill-opacity:1;stroke:none;stroke-width:6.13500023;stroke-miterlimit:4;stroke-dasharray:none;stroke-dashoffset:0;stroke-opacity:1"
       id="rect4210-0-6-7"
       width="8.9741421"
       height="191.72688"
       x="927.87506"
       y="-486.57776"
       transform="matrix(0,1,-1,0,0,0)" />
    <rect
       style="opacity:1;fill:#b88100;fill-opacity:1;stroke:none;stroke-width:6.13500023;stroke-miterlimit:4;stroke-dasharray:none;stroke-dashoffset:0;stroke-opacity:1"
       id="rect4210"
       width="9.3888083"
       height="233.15543"
       x="264.97507"
       y="740.92798" />
    <rect
       style="opacity:1;fill:#009100;fill-opacity:1;stroke:none;stroke-width:6.13500023;stroke-miterlimit:4;stroke-dasharray:none;stroke-dashoffset:0;stroke-opacity:1"
       id="rect4210-0"
       width="9.3888083"
       height="233.15543"
       x="207.88559"
       y="739.86682" />
    <rect
       style="opacity:1;fill:#2d2d2d;fill-opacity:1;stroke:none;stroke-width:6.13500023;stroke-miterlimit:4;stroke-dasharray:none;stroke-dashoffset:0;stroke-opacity:1"
       id="rect4210-0-2"
       width="9.3888092"
       height="270.29831"
       x="112.44843"
       y="698.6416" />
    <rect
       style="opacity:1;fill:#9ade00;fill-opacity:1;stroke:none;stroke-width:6.13500023;stroke-miterlimit:4;stroke-dasharray:none;stroke-dashoffset:0;stroke-opacity:1"
       id="rect4210-0-6-7-3"
       width="8.9741421"
       height="381.7269"
       x="693.58936"
       y="-465.86343"
       transform="matrix(0,1,-1,0,0,0)" />
    <path
       style="opacity:1;fill:#dc0000;fill-opacity:1;stroke:none;stroke-width:6.13500023;stroke-miterlimit:4;stroke-dasharray:none;stroke-dashoffset:0;stroke-opacity:1"
       d="m 535.58742,676.80745 -39.37697,2.29126 c -41.06669,2.38778 -70.44997,26.28656 -87.41816,65.22868 l -5.23983,8.16337 c -20.6051,71.69768 -17.47578,102.7313 -62.57121,140.58333 -45.09535,37.85216 -100.6558,37.85216 -145.75117,0 -45.09542,-37.85203 -70.01849,-149.23423 -70.01843,-224.93843 l -20.1104,-5.71429 c -1.6e-4,84.66629 31.0686,210.04188 81.50221,252.37579 50.43444,42.33377 112.56998,42.33377 163.00443,0 39.7133,-33.33436 58.52167,-90.02232 71.72056,-153.10383 22.67598,-37.98548 61.19542,-63.52839 98.96518,-66.59341 l 13.71934,-1.11434 0.0814,-16.84946 1.49307,-0.32867 z m -1.57445,17.17813 -0.003,0.3224 0.38812,-0.3537 -0.385,0.0313 z"
       id="path4136"
       inkscape:connector-curvature="0"
       sodipodi:nodetypes="ccccssccssccccccccccc" />
    <g
       id="g4184"
       transform="matrix(0.69304165,0,0,0.69304165,49.849784,302.50034)">
      <path
         id="rect4154"
         d="m 57.142578,435.59352 c -13.94274,0 -56.76629161,89.35411 -49.7949218,103.89981 3.0537268,6.37157 21.2037638,9.95095 41.2246098,10.74054 l 0,419.27199 17.142578,0 0,-419.27199 c 20.02009,-0.78973 38.169026,-4.36917 41.222656,-10.74054 6.97137,-14.5457 -35.852182,-103.89981 -49.794922,-103.89981 z"
         style="opacity:1;fill:#0084c8;fill-opacity:1;stroke:none;stroke-width:6.13500023;stroke-miterlimit:4;stroke-dasharray:none;stroke-dashoffset:0;stroke-opacity:1"
         inkscape:connector-curvature="0" />
      <path
         id="rect4154-6"
         d="m 606.74368,959.72944 c 0,-13.94274 -90.73402,-56.76628 -105.50434,-49.79491 -6.46997,3.05372 -10.10463,21.20376 -10.90641,41.2246 l -425.746786,0 0,17.14258 425.746786,0 c 0.80193,20.02009 4.43665,38.16899 10.90641,41.22269 14.77032,6.9713 105.50434,-35.85222 105.50434,-49.79496 z"
         style="opacity:1;fill:#ff6600;fill-opacity:1;stroke:none;stroke-width:6.13500023;stroke-miterlimit:4;stroke-dasharray:none;stroke-dashoffset:0;stroke-opacity:1"
         inkscape:connector-curvature="0" />
    </g>
    <text
       xml:space="preserve"
       style="font-style:normal;font-weight:normal;font-size:36.70154953px;line-height:125%;font-family:sans-serif;letter-spacing:0px;word-spacing:0px;fill:#005c94;fill-opacity:1;stroke:none;stroke-width:1px;stroke-linecap:butt;stroke-linejoin:miter;stroke-opacity:1"
       x="-904.72089"
       y="39.435432"
       id="text4188"
       sodipodi:linespacing="125%"
       transform="matrix(0,-1,1,0,0,0)"><tspan
         sodipodi:role="line"
         id="tspan4190"
         x="-904.72089"
         y="39.435432">Energy </tspan></text>
    <text
       xml:space="preserve"
       style="font-style:normal;font-weight:normal;font-size:36.70154953px;line-height:125%;font-family:sans-serif;letter-spacing:0px;word-spacing:0px;fill:#ff6600;fill-opacity:1;stroke:none;stroke-width:1px;stroke-linecap:butt;stroke-linejoin:miter;stroke-opacity:1"
       x="95.873901"
       y="1036.1239"
       id="text4188-7"
       sodipodi:linespacing="125%"><tspan
         sodipodi:role="line"
         id="tspan4190-5"
         x="95.873901"
         y="1036.1239">Displacement </tspan></text>
    <g
       id="g4312"
       transform="matrix(0.54768053,0,0,0.54768053,30.531004,874.26609)">
      <text
         sodipodi:linespacing="125%"
         id="text4188-7-9"
         y="241.77393"
         x="408.39417"
         style="font-style:normal;font-weight:normal;font-size:67.01269531px;line-height:125%;font-family:sans-serif;letter-spacing:0px;word-spacing:0px;fill:#804d00;fill-opacity:1;stroke:none;stroke-width:1px;stroke-linecap:butt;stroke-linejoin:miter;stroke-opacity:1"
         xml:space="preserve"><tspan
           y="241.77393"
           x="408.39417"
           id="tspan4190-5-1"
           sodipodi:role="line">σ′  </tspan></text>
      <text
         xml:space="preserve"
         style="font-style:normal;font-weight:normal;font-size:27.38823128px;line-height:125%;font-family:sans-serif;letter-spacing:0px;word-spacing:0px;fill:#000000;fill-opacity:1;stroke:none;stroke-width:1px;stroke-linecap:butt;stroke-linejoin:miter;stroke-opacity:1"
         x="938.05548"
         y="90.426147"
         id="text4247"
         sodipodi:linespacing="125%"><tspan
           sodipodi:role="line"
           id="tspan4249"
           x="938.05548"
           y="90.426147">'</tspan></text>
    </g>
    <text
       sodipodi:linespacing="125%"
       id="text4188-7-9-9"
       y="1001.5884"
       x="206.5007"
       style="font-style:normal;font-weight:normal;font-size:36.70154953px;line-height:125%;font-family:sans-serif;letter-spacing:0px;word-spacing:0px;fill:#009100;fill-opacity:1;stroke:none;stroke-width:1px;stroke-linecap:butt;stroke-linejoin:miter;stroke-opacity:1"
       xml:space="preserve"><tspan
         y="1001.5884"
         x="206.5007"
         id="tspan4190-5-1-3"
         sodipodi:role="line">r </tspan></text>
    <path
       style="opacity:1;fill:#ba00ff;fill-opacity:1;stroke:none;stroke-width:6.13500023;stroke-miterlimit:4;stroke-dasharray:none;stroke-dashoffset:0;stroke-opacity:1"
       d="m 268.85902,759.13542 c 0,-2.45757 -7.72292,-10.00571 -8.98011,-8.77693 -0.55069,0.53823 -0.86006,3.7372 -0.92832,7.26597 l -35.84866,0 c -0.0682,-3.52877 -0.37762,-6.72774 -0.92831,-7.26597 -1.25719,-1.22878 -8.98011,6.31936 -8.98011,8.77693 0,2.45757 7.72292,10.00571 8.98011,8.77693 0.55069,-0.53823 0.86005,-3.73719 0.92831,-7.26597 l 35.84866,0 c 0.0683,3.52878 0.37763,6.72773 0.92832,7.26597 1.25719,1.22878 8.98011,-6.31936 8.98011,-8.77693 z"
       id="rect4154-60"
       inkscape:connector-curvature="0" />
    <g
       id="g4403"
       transform="matrix(0.54768053,0,0,0.54768053,692.2322,598.30872)">
      <text
         xml:space="preserve"
         style="font-style:normal;font-weight:normal;font-size:67.01269531px;line-height:125%;font-family:sans-serif;letter-spacing:0px;word-spacing:0px;fill:#ba00ff;fill-opacity:1;stroke:none;stroke-width:1px;stroke-linecap:butt;stroke-linejoin:miter;stroke-opacity:1"
         x="-925.42279"
         y="248.27058"
         id="text4188-7-9-9-2"
         sodipodi:linespacing="125%"><tspan
           sodipodi:role="line"
           id="tspan4190-5-1-3-6"
           x="-925.42279"
           y="248.27058">Δr=r-σ′ </tspan></text>
    </g>
    <path
       style="opacity:1;fill:#9eabb0;fill-opacity:1;stroke:none;stroke-width:6.13500023;stroke-miterlimit:4;stroke-dasharray:none;stroke-dashoffset:0;stroke-opacity:1"
       d="m 464.28571,922.33778 c 4.73015,0 19.25821,-25.16426 16.89316,-29.26067 -1.03594,-1.79435 -7.19307,-2.80241 -13.98497,-3.02483 l 0,-116.80884 c 6.7919,-0.2224 12.94903,-1.23044 13.98497,-3.0248 2.36505,-4.09639 -12.16301,-29.26067 -16.89316,-29.26067 -4.73014,0 -19.2582,25.16428 -16.89315,29.26067 1.03594,1.79436 7.19306,2.80238 13.98497,3.0248 l 0,116.80884 c -6.79191,0.22242 -12.94901,1.23048 -13.98497,3.02483 -2.36505,4.09641 12.16301,29.26067 16.89315,29.26067 z"
       id="rect4154-60-5"
       inkscape:connector-curvature="0" />
    <text
       xml:space="preserve"
       style="font-style:normal;font-weight:normal;font-size:59.74329758px;line-height:125%;font-family:sans-serif;letter-spacing:0px;word-spacing:0px;fill:#000000;fill-opacity:1;stroke:none;stroke-width:1px;stroke-linecap:butt;stroke-linejoin:miter;stroke-opacity:1"
       x="477.09427"
       y="853.15717"
       id="text4224"
       sodipodi:linespacing="125%"><tspan
         sodipodi:role="line"
         id="tspan4226"
         x="477.09427"
         y="853.15717"
         style="fill:#9eabb0">-ε</tspan></text>
    <text
       xml:space="preserve"
       style="font-style:normal;font-weight:normal;font-size:59.74329758px;line-height:125%;font-family:sans-serif;letter-spacing:0px;word-spacing:0px;fill:#9ade00;fill-opacity:1;stroke:none;stroke-width:1px;stroke-linecap:butt;stroke-linejoin:miter;stroke-opacity:1"
       x="40.771786"
       y="731.54077"
       id="text4224-5"
       sodipodi:linespacing="125%"><tspan
         sodipodi:role="line"
         id="tspan4226-6"
         x="40.771786"
         y="731.54077"
         style="fill:#9ade00">0</tspan></text>
    <text
       sodipodi:linespacing="125%"
       id="text4188-7-9-91"
       y="1004.0515"
       x="104.48214"
       style="font-style:normal;font-weight:normal;font-size:36.70154572px;line-height:125%;font-family:sans-serif;letter-spacing:0px;word-spacing:0px;fill:#2d2d2d;fill-opacity:1;stroke:none;stroke-width:1px;stroke-linecap:butt;stroke-linejoin:miter;stroke-opacity:1"
       xml:space="preserve"><tspan
         y="1004.0515"
         x="104.48214"
         id="tspan4190-5-1-2"
         sodipodi:role="line">σ  </tspan></text>
    <text
       xml:space="preserve"
       style="font-style:normal;font-weight:normal;font-size:65.48480225px;line-height:125%;font-family:sans-serif;letter-spacing:0px;word-spacing:0px;fill:#dc0000;fill-opacity:1;stroke:none;stroke-width:1px;stroke-linecap:butt;stroke-linejoin:miter;stroke-opacity:1"
       x="441.03409"
       y="667.13501"
       id="text4318"
       sodipodi:linespacing="125%"><tspan
         sodipodi:role="line"
         id="tspan4320"
         x="441.03409"
         y="667.13501">V(r)</tspan></text>
  </g>
</svg>
